<svg width="182" height="47" viewBox="0 0 182 47" fill="none" xmlns="http://www.w3.org/2000/svg">
<path d="M37.3477 3.3833C37.9344 1.66614 40.3071 1.61413 41.0028 3.22728L41.0616 3.38428L41.8535 5.7C42.035 6.23107 42.3282 6.71706 42.7135 7.12517C43.0987 7.53328 43.567 7.85402 44.0868 8.06576L44.2997 8.14524L46.6154 8.93611C48.3326 9.52289 48.3846 11.8955 46.7724 12.5912L46.6154 12.6501L44.2997 13.4419C43.7684 13.6233 43.2823 13.9165 42.874 14.3018C42.4657 14.687 42.1448 15.1554 41.933 15.6752L41.8535 15.8872L41.0626 18.2039C40.4758 19.921 38.1032 19.973 37.4085 18.3609L37.3477 18.2039L36.5568 15.8882C36.3754 15.3569 36.0822 14.8707 35.697 14.4624C35.3117 14.0542 34.8433 13.7333 34.3235 13.5214L34.1115 13.4419L31.7958 12.6511C30.0777 12.0643 30.0257 9.69166 31.6388 8.99695L31.7958 8.93611L34.1115 8.14524C34.6426 7.96376 35.1286 7.67051 35.5367 7.28525C35.9448 6.9 36.2656 6.4317 36.4773 5.91194L36.5568 5.7L37.3477 3.3833ZM47.055 1.77297e-07C47.2386 -2.31544e-07 47.4185 0.0514936 47.5742 0.148629C47.73 0.245765 47.8554 0.384647 47.9362 0.549492L47.9833 0.664297L48.3267 1.67104L49.3344 2.01448C49.5184 2.07698 49.6797 2.19268 49.7978 2.34693C49.9159 2.50118 49.9856 2.68703 49.998 2.88093C50.0104 3.07482 49.965 3.26804 49.8675 3.43608C49.7699 3.60412 49.6247 3.73943 49.4502 3.82486L49.3344 3.87196L48.3277 4.21539L47.9842 5.22312C47.9216 5.40703 47.8058 5.56822 47.6515 5.68625C47.4972 5.80429 47.3113 5.87386 47.1175 5.88616C46.9236 5.89845 46.7304 5.85292 46.5624 5.75532C46.3944 5.65772 46.2592 5.51245 46.1739 5.33792L46.1268 5.22312L45.7833 4.21637L44.7756 3.87294C44.5916 3.81044 44.4304 3.69473 44.3122 3.54048C44.1941 3.38623 44.1244 3.20038 44.112 3.00649C44.0996 2.81259 44.1451 2.61938 44.2426 2.45134C44.3401 2.28329 44.4853 2.14798 44.6598 2.06256L44.7756 2.01546L45.7824 1.67203L46.1258 0.664297C46.192 0.470429 46.3171 0.302131 46.4838 0.182999C46.6504 0.0638677 46.8502 -0.000122931 47.055 1.77297e-07Z" fill="black"/>
<path d="M24.2168 7.85083C25.5089 7.85083 26.7152 7.93824 27.835 8.1106L27.7852 8.12817L27.5625 8.21411C25.2703 9.20126 25.3438 12.5727 27.7852 13.4065L31.0762 14.5305L31.377 14.6438C32.1155 14.9448 32.7808 15.4007 33.3281 15.9807C33.8755 16.5608 34.2931 17.2513 34.5508 18.0061L35.6738 21.2971L35.7607 21.5198C36.3059 22.7848 37.5776 23.3271 38.748 23.1497V32.0686C38.748 41.7553 33.9036 46.5989 24.2168 46.5989H14.5303C4.84351 46.5989 8.89853e-05 41.7553 0 32.0686L0.0146484 21.4875C0.307887 12.3966 5.14612 7.85085 14.5303 7.85083H24.2168ZM10.6631 15.2336C9.82191 15.2338 9.13965 15.9159 9.13965 16.7571V19.804C9.13988 20.645 9.82205 21.3262 10.6631 21.3264H27.4199C28.2611 21.3264 28.9431 20.6451 28.9434 19.804V16.7571C28.9434 15.9158 28.2612 15.2336 27.4199 15.2336H10.6631Z" fill="black"/>
<path d="M47.4639 39.5989V20.1589H50.2239L54.5439 30.2869V20.1589H57.8079V39.5989H55.1679L50.8479 28.8469V39.5989H47.4639ZM65.265 39.8629C63.793 39.8629 62.649 39.6149 61.833 39.1189C61.017 38.6069 60.441 37.8789 60.105 36.9349C59.785 35.9749 59.625 34.8149 59.625 33.4549V20.1589H63.537V34.0069C63.537 34.4869 63.569 34.9589 63.633 35.4229C63.713 35.8869 63.873 36.2629 64.113 36.5509C64.369 36.8389 64.753 36.9829 65.265 36.9829C65.793 36.9829 66.177 36.8389 66.417 36.5509C66.673 36.2629 66.833 35.8869 66.897 35.4229C66.961 34.9589 66.993 34.4869 66.993 34.0069V20.1589H70.905V33.4549C70.905 34.8149 70.737 35.9749 70.401 36.9349C70.081 37.8789 69.513 38.6069 68.697 39.1189C67.881 39.6149 66.737 39.8629 65.265 39.8629ZM74.532 39.5989V23.1109H71.532V20.1589H81.468V23.1109H78.516V39.5989H74.532ZM82.2714 39.5989V20.1589H87.3114C88.6234 20.1589 89.7434 20.3109 90.6714 20.6149C91.6154 20.9029 92.3354 21.4229 92.8314 22.1749C93.3434 22.9269 93.5994 23.9669 93.5994 25.2949C93.5994 26.0949 93.5274 26.8069 93.3834 27.4309C93.2554 28.0389 93.0154 28.5749 92.6634 29.0389C92.3274 29.4869 91.8474 29.8469 91.2234 30.1189L93.9114 39.5989H89.8554L87.6234 30.7909H86.2314V39.5989H82.2714ZM86.2314 28.4389H87.3834C88.0234 28.4389 88.5274 28.3349 88.8954 28.1269C89.2634 27.9189 89.5194 27.6069 89.6634 27.1909C89.8234 26.7589 89.9034 26.2309 89.9034 25.6069C89.9034 24.7109 89.7354 24.0309 89.3994 23.5669C89.0794 23.0869 88.4714 22.8469 87.5754 22.8469H86.2314V28.4389ZM95.3516 39.5989V20.1589H99.2876V39.5989H95.3516ZM101.305 39.5989V20.1589H107.473C108.641 20.1589 109.593 20.3829 110.329 20.8309C111.065 21.2629 111.609 21.8949 111.961 22.7269C112.329 23.5589 112.513 24.5669 112.513 25.7509C112.513 27.1429 112.273 28.2309 111.793 29.0149C111.329 29.7989 110.689 30.3589 109.873 30.6949C109.057 31.0149 108.121 31.1749 107.065 31.1749H105.265V39.5989H101.305ZM105.265 28.3909H106.657C107.233 28.3909 107.673 28.3029 107.977 28.1269C108.297 27.9349 108.513 27.6389 108.625 27.2389C108.737 26.8389 108.793 26.3269 108.793 25.7029C108.793 25.1109 108.745 24.6149 108.649 24.2149C108.569 23.8149 108.377 23.5029 108.073 23.2789C107.769 23.0549 107.289 22.9429 106.633 22.9429H105.265V28.3909ZM113.587 39.5989V20.1589H117.547V36.9109H122.107V39.5989H113.587ZM122.05 39.5989L125.818 20.1589H130.21L133.954 39.5989H130.282L129.586 35.3269H126.514L125.77 39.5989H122.05ZM126.874 32.9029H129.202L128.026 25.0549L126.874 32.9029ZM134.964 39.5989V20.1589H137.724L142.044 30.2869V20.1589H145.308V39.5989H142.668L138.348 28.8469V39.5989H134.964ZM147.293 39.5989V20.1589H150.053L154.373 30.2869V20.1589H157.637V39.5989H154.997L150.677 28.8469V39.5989H147.293ZM159.622 39.5989V20.1589H168.094V22.8949H163.582V28.0549H167.062V30.8149H163.582V36.9109H168.142V39.5989H159.622ZM169.185 39.5989V20.1589H174.225C175.537 20.1589 176.657 20.3109 177.585 20.6149C178.529 20.9029 179.249 21.4229 179.745 22.1749C180.257 22.9269 180.513 23.9669 180.513 25.2949C180.513 26.0949 180.441 26.8069 180.297 27.4309C180.169 28.0389 179.929 28.5749 179.577 29.0389C179.241 29.4869 178.761 29.8469 178.137 30.1189L180.825 39.5989H176.769L174.537 30.7909H173.145V39.5989H169.185ZM173.145 28.4389H174.297C174.937 28.4389 175.441 28.3349 175.809 28.1269C176.177 27.9189 176.433 27.6069 176.577 27.1909C176.737 26.7589 176.817 26.2309 176.817 25.6069C176.817 24.7109 176.649 24.0309 176.313 23.5669C175.993 23.0869 175.385 22.8469 174.489 22.8469H173.145V28.4389Z" fill="black"/>
</svg>
